{"title":"After.Earth.(2013).BDRip.HUN.x264.720p","uid":9002601,"size":3883620509,"categoryP":"video","categoryS":"hd___movies","magnet":"?xt=urn:btih:cc40f85383bdba9af1ae08e4f41d007af2d2d8c6&amp;dn=After.Earth.%282013%29.BDRip.HUN.x264.720p&amp;tr=udp%3A%2F%2Ftracker.openbittorrent.com%3A80&amp;tr=udp%3A%2F%2Fopen.demonii.com%3A1337&amp;tr=udp%3A%2F%2Ftracker.coppersurfer.tk%3A6969&amp;tr=udp%3A%2F%2Fexodus.desync.com%3A6969","seeders":0,"leechers":1,"uploader":"rinoceros","files":-1,"time":1380972256,"description":"General\nUnique ID                                : 237473446803516808310849665044361876285 (0xB2A7B8E361CBDD89904597584359933D)\nComplete name                            : F:After.Earth(2013).BDRip.HUN.x264.720pAfter Earth (2013) 720p.mkv\nFormat                                   : Matroska\nFormat version                           : Version 4 / Version 2\nFile size                                : 3.62 GiB\nDuration                                 : 1h 40mn\nOverall bit rate                         : 5 176 Kbps\nEncoded date                             : UTC 2013-10-05 06:34:20\nWriting application                      : mkvmerge v6.4.1 ('Omega Point') built on Sep 16 2013 22:05:10\nWriting library                          : libebml v1.3.0 + libmatroska v1.4.1\n\nVideo\nID                                       : 1\nFormat                                   : AVC\nFormat/Info                              : Advanced Video Codec\nFormat profile                           : &lt;a class=&quot;__cf_email__&quot; href=&quot;/cdn-cgi/l/email-protection&quot; data-cfemail=&quot;8ec6e7e9e6cec2baa0bf&quot;&gt;[email&amp;#160;protected]&lt;/a&gt;&lt;script cf-hash='f9e31' type=&quot;text/javascript&quot;&gt;\n/* &lt;![CDATA[ */!function(){try{var t=&quot;currentScript&quot;in document?document.currentScript:function(){for(var t=document.getElementsByTagName(&quot;script&quot;),e=t.length;e--;)if(t[e].getAttribute(&quot;cf-hash&quot;))return t[e]}();if(t&amp;&amp;t.previousSibling){var e,r,n,i,c=t.previousSibling,a=c.getAttribute(&quot;data-cfemail&quot;);if(a){for(e=&quot;&quot;,r=parseInt(a.substr(0,2),16),n=2;a.length-n;n+=2)i=parseInt(a.substr(n,2),16)^r,e+=String.fromCharCode(i);e=document.createTextNode(e),c.parentNode.replaceChild(e,c)}}}catch(u){}}();/* ]]&gt; */&lt;/script&gt;\nFormat settings, CABAC                   : Yes\nFormat settings, ReFrames                : 8 frames\nCodec ID                                 : V_MPEG4/ISO/AVC\nDuration                                 : 1h 40mn\nBit rate                                 : 4 725 Kbps\nWidth                                    : 1 280 pixels\nHeight                                   : 534 pixels\nDisplay aspect ratio                     : 2.40:1\nFrame rate mode                          : Constant\nFrame rate                               : 23.976 fps\nColor space                              : YUV\nChroma subsampling                       : 4:2:0\nBit depth                                : 8 bits\nScan type                                : Progressive\nBits/(Pixel*Frame)                       : 0.288\nStream size                              : 3.23 GiB (89%)\nTitle                                    : After Earth (2013) 720p\nWriting library                          : x264 core 120\nEncoding settings                        : cabac=1 // deblock=1:-3:-3 / analyse=0x3:0x113 / me=hex / subme=7 / psy=1 / psy_rd=1.00:0.00 // me_range=16 / chroma_me=1 / trellis=1 / 8x8dct=1 / cqm=0 / deadzone=21,11 / fast_pskip=1 / chroma_qp_offset=-2 / threads=3 / sliced_threads=0 / nr=0 / decimate=1 / interlaced=0 / bluray_compat=0 / constrained_intra=0 / bframes=3 / b_pyramid=2 / b_adapt=2 / b_bias=0 / direct=1 / weightb=1 / open_gop=0 / weightp=2 / keyint=240 / keyint_min=24 / scenecut=40 / intra_refresh=0 / rc_lookahead=10 / rc=2pass / mbtree=1 / bitrate=4725 / ratetol=1.0 / qcomp=0.60 / qpmin=3 / qpmax=69 / qpstep=4 / cplxblur=20.0 / qblur=0.5 / ip_ratio=1.40 / aq=1:1.00\nDefault                                  : Yes\nForced                                   : No\nColor primaries                          : BT.709\nTransfer characteristics                 : BT.709\nMatrix coefficients                      : BT.709\n\nAudio\nID                                       : 2\nFormat                                   : AC-3\nFormat/Info                              : Audio Coding 3\nMode extension                           : CM (complete main)\nFormat settings, Endianness              : Big\nCodec ID                                 : A_AC3\nDuration                                 : 1h 40mn\nBit rate mode                            : Constant\nBit rate                                 : 448 Kbps\nChannel(s)                               : 6 channels\nChannel positions                        : Front: L C R, Side: L R, LFE\nSampling rate                            : 48.0 KHz\nBit depth                                : 16 bits\nCompression mode                         : Lossy\nStream size                              : 321 MiB (9%)\nTitle                                    : ac3 5.1\nLanguage                                 : Hungarian\nDefault                                  : Yes\nForced                                   : No\n\nText\nID                                       : 3\nFormat                                   : UTF-8\nCodec ID                                 : S_TEXT/UTF8\nCodec ID/Info                            : UTF-8 Plain Text\nTitle                                    : forced\nLanguage                                 : Hungarian\nDefault                                  : Yes\nForced                                   : forced\n &lt;a href=&quot;\nhttp://port.hu/a_fold_utan_after_earth/pls/fi/films.film_page?i_topic_id=2&amp;i_film_id=139645&amp;i_city_id=-1&amp;i_county_id=-1&quot; rel=&quot;nofollow&quot; target=&quot;_NEW&quot;&gt;\nhttp://port.hu/a_fold_utan_after_earth/pls/fi/films.film_page?i_topic_id=2&amp;i_film_id=139645&amp;i_city_id=-1&amp;i_county_id=-1&lt;/a&gt;","torrent":{"xt":"urn:btih:cc40f85383bdba9af1ae08e4f41d007af2d2d8c6","amp;dn":"After.Earth.%282013%29.BDRip.HUN.x264.720p","amp;tr":["udp%3A%2F%2Ftracker.openbittorrent.com%3A80","udp%3A%2F%2Fopen.demonii.com%3A1337","udp%3A%2F%2Ftracker.coppersurfer.tk%3A6969","udp%3A%2F%2Fexodus.desync.com%3A6969"],"infoHash":"cc40f85383bdba9af1ae08e4f41d007af2d2d8c6","infoHashBuffer":{"type":"Buffer","data":[204,64,248,83,131,189,186,154,241,174,8,228,244,29,0,122,242,210,216,198]},"announce":[],"urlList":[]}}